{"title":"Real Wife Stories-Nicole Aniston-A Secret Gentleman's Club 2014","uid":10807176,"size":672394837,"categoryP":"porn","categoryS":"movies","magnet":"?xt=urn:btih:e915ef56d7130eefe575c5c409bddd0d6ec55f2e&amp;dn=Real+Wife+Stories-Nicole+Aniston-A+Secret+Gentleman%27s+Club+2014&amp;tr=udp%3A%2F%2Ftracker.openbittorrent.com%3A80&amp;tr=udp%3A%2F%2Fopen.demonii.com%3A1337&amp;tr=udp%3A%2F%2Ftracker.coppersurfer.tk%3A6969&amp;tr=udp%3A%2F%2Fexodus.desync.com%3A6969","seeders":0,"leechers":1,"uploader":"iH2OSO4","files":-1,"time":1408390760,"description":"SOURCE : &lt;a href=&quot; http://nuscotower.com/i/fdtjh.html&quot; rel=&quot;nofollow&quot; target=&quot;_NEW&quot;&gt; http://nuscotower.com/i/fdtjh.html&lt;/a&gt;\n\nNicole has just discovered that her no good husband, has been frequenting a secret gentleman's club. After years of being a loyal, faithful and even a subservient wife, she decides it is time to catch that scallywag in the act by following him to the club. Once inside, Nicole discovers an alluring world of wanton sex, debauchery and mystique that she is caught off guard by. Seeking refuge in a random room across from where her husband is, Nicole soon finds herself in over her head while giving head to a random stranger while posing as a faux-floozy. Follow Nicole as she breaks free from her shitty housewife life as she has some &quot;Secret Fun at the Gentleman's Club&quot;! Nicole gets fucked in doggy, cowgirl, reverse cowgirl, spoon and missionary positions. The scene also includes a blowjob and a facial. \n\nReal Wife Stories - Nicole Aniston - A Secret Gentlemans Club - 18.AUG.2014.mp4\n\nSOURCE : &lt;a href=&quot; http://nuscotower.com/i/fdtjh.html&quot; rel=&quot;nofollow&quot; target=&quot;_NEW&quot;&gt; http://nuscotower.com/i/fdtjh.html&lt;/a&gt;\n\nFormat                           : MPEG-4\nFormat profile                   : Base Media\nCodec ID                         : isom\nFile size                        : 640 MiB\nDuration                         : 42mn 7s\nOverall bit rate                 : 2 126 Kbps\nEncoded date                     : UTC 2014-08-18 14:35:13\nTagged date                      : UTC 2014-08-18 14:35:13\n\nVideo\nID                               : 1\nFormat                           : MPEG-4 Visual\nFormat profile                   : Simple@L1\nFormat settings, BVOP            : No\nFormat settings, QPel            : No\nFormat settings, GMC             : No warppoints\nFormat settings, Matrix          : Default (H.263)\nCodec ID                         : 20\nDuration                         : 42mn 7s\nBit rate mode                    : Variable\nBit rate                         : 1 997 Kbps\nMaximum bit rate                 : 5 098 Kbps\nWidth                            : 856 pixels\nHeight                           : 480 pixels\nDisplay aspect ratio             : 16:9\nFrame rate mode                  : Constant\nFrame rate                       : 29.970 fps\nColor space                      : YUV\nChroma subsampling               : 4:2:0\nBit depth                        : 8 bits\nScan type                        : Progressive\nCompression mode                 : Lossy\nBits/(Pixel*Frame)               : 0.162\nStream size                      : 602 MiB (94%)\nWriting library                  : Lavc53.8.0\nEncoded date                     : UTC 2014-08-18 14:35:13\nTagged date                      : UTC 2014-08-18 14:35:41\n\nAudio\nID                               : 2\nFormat                           : AAC\nFormat/Info                      : Advanced Audio Codec\nFormat profile                   : LC\nCodec ID                         : 40\nDuration                         : 42mn 7s\nBit rate mode                    : Variable\nBit rate                         : 126 Kbps\nMaximum bit rate                 : 201 Kbps\nChannel(s)                       : 2 channels\nChannel positions                : Front: L R\nSampling rate                    : 44.1 KHz\nCompression mode                 : Lossy\nStream size                      : 38.0 MiB (6%)\nEncoded date                     : UTC 2014-08-18 14:35:34\nTagged date                      : UTC 2014-08-18 14:35:41\n","torrent":{"xt":"urn:btih:e915ef56d7130eefe575c5c409bddd0d6ec55f2e","amp;dn":"Real+Wife+Stories-Nicole+Aniston-A+Secret+Gentleman%27s+Club+2014","amp;tr":["udp%3A%2F%2Ftracker.openbittorrent.com%3A80","udp%3A%2F%2Fopen.demonii.com%3A1337","udp%3A%2F%2Ftracker.coppersurfer.tk%3A6969","udp%3A%2F%2Fexodus.desync.com%3A6969"],"infoHash":"e915ef56d7130eefe575c5c409bddd0d6ec55f2e","infoHashBuffer":{"type":"Buffer","data":[233,21,239,86,215,19,14,239,229,117,197,196,9,189,221,13,110,197,95,46]},"announce":[],"urlList":[]}}